<mxfile modified="2019-10-16T06:41:37.339Z" host="www.draw.io" agent="Mozilla/5.0 (Windows NT 10.0; Win64; x64) AppleWebKit/537.36 (KHTML, like Gecko) Chrome/77.0.3865.90 Safari/537.36" etag="n7oeyAwAo0qVuYaLQEEt" version="12.1.1" type="github" pages="1">
  <diagram id="6a731a19-8d31-9384-78a2-239565b7b9f0" name="Page-1">
    <mxGraphModel dx="1408" dy="748" grid="1" gridSize="10" guides="1" tooltips="1" connect="1" arrows="1" fold="1" page="1" pageScale="1" pageWidth="1169" pageHeight="827" background="#ffffff" math="0" shadow="0">
      <root>
        <mxCell id="0"/>
        <mxCell id="1" parent="0"/>
        <mxCell id="35ZcNOYxvB1pqXLSH2v5-153" value="" style="rounded=1;whiteSpace=wrap;html=1;fillColor=#dae8fc;strokeColor=#6c8ebf;" parent="1" vertex="1">
          <mxGeometry x="70" y="1610" width="800" height="235" as="geometry"/>
        </mxCell>
        <mxCell id="35ZcNOYxvB1pqXLSH2v5-60" value="" style="rounded=1;whiteSpace=wrap;html=1;fillColor=#f8cecc;strokeColor=#b85450;" parent="1" vertex="1">
          <mxGeometry x="65" y="30" width="795" height="370" as="geometry"/>
        </mxCell>
        <mxCell id="35ZcNOYxvB1pqXLSH2v5-55" value="" style="rounded=0;whiteSpace=wrap;html=1;" parent="1" vertex="1">
          <mxGeometry x="205" y="130" width="230" height="100" as="geometry"/>
        </mxCell>
        <mxCell id="2" value="Submit is pressed &lt;br&gt;from the front end" style="shape=mxgraph.flowchart.terminator;fillColor=#FFFFFF;strokeColor=#000000;strokeWidth=2;gradientColor=none;gradientDirection=north;fontColor=#001933;fontStyle=0;html=1;" parent="1" vertex="1">
          <mxGeometry x="260" y="40" width="120" height="50" as="geometry"/>
        </mxCell>
        <mxCell id="7" style="fontColor=#001933;fontStyle=1;strokeColor=#003366;strokeWidth=1;html=1;" parent="1" source="2" edge="1">
          <mxGeometry relative="1" as="geometry">
            <mxPoint x="320" y="130" as="targetPoint"/>
          </mxGeometry>
        </mxCell>
        <mxCell id="8" style="fontColor=#001933;fontStyle=1;strokeColor=#003366;strokeWidth=1;html=1;entryX=1;entryY=0.5;entryDx=0;entryDy=0;exitX=0.299;exitY=0.999;exitDx=0;exitDy=0;exitPerimeter=0;" parent="1" source="35ZcNOYxvB1pqXLSH2v5-89" target="35ZcNOYxvB1pqXLSH2v5-67" edge="1">
          <mxGeometry relative="1" as="geometry">
            <mxPoint x="512" y="216" as="sourcePoint"/>
            <mxPoint x="319.5" y="269.9999999999999" as="targetPoint"/>
            <Array as="points">
              <mxPoint x="512" y="325"/>
            </Array>
          </mxGeometry>
        </mxCell>
        <mxCell id="35ZcNOYxvB1pqXLSH2v5-59" value="&lt;h1&gt;Verification&lt;br&gt;&lt;/h1&gt;&lt;pre&gt;&lt;div&gt;&lt;span&gt;called&lt;/span&gt;&lt;span style=&quot;font-family: &amp;#34;helvetica&amp;#34; ; white-space: normal&quot;&gt;&amp;nbsp;and creates a Post object (JS)&amp;nbsp;&lt;/span&gt;&lt;font face=&quot;helvetica&quot;&gt;&lt;span style=&quot;white-space: normal&quot;&gt;with the given data it is then verified&amp;nbsp;as if it was a new post&lt;/span&gt;&lt;/font&gt;&lt;/div&gt;&lt;/pre&gt;" style="text;html=1;strokeColor=none;fillColor=none;spacing=5;spacingTop=-20;whiteSpace=wrap;overflow=hidden;rounded=0;" parent="1" vertex="1">
          <mxGeometry x="205" y="130" width="230" height="100" as="geometry"/>
        </mxCell>
        <mxCell id="35ZcNOYxvB1pqXLSH2v5-65" value="&lt;b&gt;View (front-end)&lt;/b&gt;" style="text;html=1;strokeColor=none;fillColor=none;align=center;verticalAlign=middle;whiteSpace=wrap;rounded=0;" parent="1" vertex="1">
          <mxGeometry x="95" y="55" width="110" height="20" as="geometry"/>
        </mxCell>
        <mxCell id="35ZcNOYxvB1pqXLSH2v5-66" value="" style="rounded=0;whiteSpace=wrap;html=1;" parent="1" vertex="1">
          <mxGeometry x="205" y="270" width="235" height="110" as="geometry"/>
        </mxCell>
        <mxCell id="35ZcNOYxvB1pqXLSH2v5-67" value="&lt;h1&gt;&lt;pre&gt;&lt;span&gt;modToDB&lt;/span&gt;&lt;/pre&gt;&lt;/h1&gt;&lt;p&gt;Created the URL to call the Spring Server (HTTP Request) to then mod the data in the DB&lt;/p&gt;" style="text;html=1;strokeColor=none;fillColor=none;spacing=5;spacingTop=-20;whiteSpace=wrap;overflow=hidden;rounded=0;" parent="1" vertex="1">
          <mxGeometry x="205" y="270" width="235" height="110" as="geometry"/>
        </mxCell>
        <mxCell id="35ZcNOYxvB1pqXLSH2v5-70" value="" style="rounded=1;whiteSpace=wrap;html=1;fillColor=#fff2cc;strokeColor=#d6b656;" parent="1" vertex="1">
          <mxGeometry x="70" y="410" width="796" height="1120" as="geometry"/>
        </mxCell>
        <mxCell id="35ZcNOYxvB1pqXLSH2v5-73" value="" style="rounded=1;whiteSpace=wrap;html=1;fillColor=#ffe6cc;strokeColor=#d79b00;" parent="1" vertex="1">
          <mxGeometry x="179" y="460" width="651" height="270" as="geometry"/>
        </mxCell>
        <mxCell id="35ZcNOYxvB1pqXLSH2v5-75" value="Controller Layer" style="text;html=1;strokeColor=none;fillColor=none;align=center;verticalAlign=middle;whiteSpace=wrap;rounded=0;" parent="1" vertex="1">
          <mxGeometry x="196" y="480" width="110" height="20" as="geometry"/>
        </mxCell>
        <mxCell id="35ZcNOYxvB1pqXLSH2v5-77" value="" style="rounded=0;whiteSpace=wrap;html=1;" parent="1" vertex="1">
          <mxGeometry x="256" y="510" width="190" height="140" as="geometry"/>
        </mxCell>
        <mxCell id="35ZcNOYxvB1pqXLSH2v5-78" value="&lt;h1&gt;&lt;pre&gt;&lt;span&gt;addPost&lt;/span&gt;&lt;/pre&gt;&lt;/h1&gt;&lt;p&gt;all the prams passed in are checked for null/empty values and then is passed to the service layer to see if can be successfully added&lt;/p&gt;" style="text;html=1;strokeColor=none;fillColor=none;spacing=5;spacingTop=-20;whiteSpace=wrap;overflow=hidden;rounded=0;" parent="1" vertex="1">
          <mxGeometry x="256" y="510" width="190" height="140" as="geometry"/>
        </mxCell>
        <mxCell id="35ZcNOYxvB1pqXLSH2v5-86" value="" style="endArrow=classic;html=1;exitX=1;exitY=0.5;exitDx=0;exitDy=0;entryX=0.108;entryY=0.42;entryDx=0;entryDy=0;entryPerimeter=0;" parent="1" source="35ZcNOYxvB1pqXLSH2v5-59" target="35ZcNOYxvB1pqXLSH2v5-89" edge="1">
          <mxGeometry width="50" height="50" relative="1" as="geometry">
            <mxPoint x="430" y="210" as="sourcePoint"/>
            <mxPoint x="464.1428571428571" y="179.80952380952374" as="targetPoint"/>
          </mxGeometry>
        </mxCell>
        <mxCell id="35ZcNOYxvB1pqXLSH2v5-89" value="" style="shape=parallelogram;perimeter=parallelogramPerimeter;whiteSpace=wrap;html=1;" parent="1" vertex="1">
          <mxGeometry x="464" y="155" width="161" height="60" as="geometry"/>
        </mxCell>
        <mxCell id="35ZcNOYxvB1pqXLSH2v5-88" value="&lt;h1 style=&quot;font-size: 14px&quot;&gt;&lt;span&gt;POST OBJECT&lt;/span&gt;&lt;br&gt;&lt;span style=&quot;font-weight: normal&quot;&gt;has all data to be added&lt;/span&gt;&lt;br&gt;&lt;/h1&gt;" style="text;html=1;strokeColor=none;fillColor=none;spacing=5;spacingTop=-20;whiteSpace=wrap;overflow=hidden;rounded=0;" parent="1" vertex="1">
          <mxGeometry x="490" y="165" width="125" height="50" as="geometry"/>
        </mxCell>
        <mxCell id="35ZcNOYxvB1pqXLSH2v5-91" value="" style="rounded=1;whiteSpace=wrap;html=1;fillColor=#d5e8d4;strokeColor=#82b366;" parent="1" vertex="1">
          <mxGeometry x="180" y="740" width="660" height="530" as="geometry"/>
        </mxCell>
        <mxCell id="35ZcNOYxvB1pqXLSH2v5-93" value="Service Layer" style="text;html=1;strokeColor=none;fillColor=none;align=center;verticalAlign=middle;whiteSpace=wrap;rounded=0;" parent="1" vertex="1">
          <mxGeometry x="211" y="754" width="90" height="20" as="geometry"/>
        </mxCell>
        <mxCell id="35ZcNOYxvB1pqXLSH2v5-94" value="&lt;b&gt;Controller (Back/Server-end)&lt;/b&gt;" style="text;html=1;strokeColor=none;fillColor=none;align=center;verticalAlign=middle;whiteSpace=wrap;rounded=0;" parent="1" vertex="1">
          <mxGeometry x="150" y="430" width="180" height="20" as="geometry"/>
        </mxCell>
        <mxCell id="35ZcNOYxvB1pqXLSH2v5-96" value="" style="rounded=0;whiteSpace=wrap;html=1;" parent="1" vertex="1">
          <mxGeometry x="270" y="784" width="180" height="116" as="geometry"/>
        </mxCell>
        <mxCell id="35ZcNOYxvB1pqXLSH2v5-97" value="&lt;h1&gt;&lt;pre&gt;&lt;span&gt;&lt;font style=&quot;font-size: 21px&quot;&gt;modAPost&lt;/font&gt;&lt;/span&gt;&lt;/pre&gt;&lt;/h1&gt;&lt;p&gt;&lt;font style=&quot;font-size: 10px&quot;&gt;Does further validations of the given object data this includes that it is the users post and it the criteria we say can be mod. is only mod.&amp;nbsp;&lt;/font&gt;&lt;/p&gt;" style="text;html=1;strokeColor=none;fillColor=none;spacing=5;spacingTop=-20;whiteSpace=wrap;overflow=hidden;rounded=0;align=left;" parent="1" vertex="1">
          <mxGeometry x="270" y="770" width="180" height="130" as="geometry"/>
        </mxCell>
        <mxCell id="35ZcNOYxvB1pqXLSH2v5-98" value="EventResource&amp;nbsp;&lt;br&gt;Object Made&lt;br&gt;" style="shape=parallelogram;perimeter=parallelogramPerimeter;whiteSpace=wrap;html=1;" parent="1" vertex="1">
          <mxGeometry x="480" y="560" width="133" height="60" as="geometry"/>
        </mxCell>
        <mxCell id="35ZcNOYxvB1pqXLSH2v5-100" value="" style="endArrow=classic;html=1;exitX=1;exitY=0.5;exitDx=0;exitDy=0;entryX=0;entryY=0.25;entryDx=0;entryDy=0;" parent="1" source="35ZcNOYxvB1pqXLSH2v5-78" target="35ZcNOYxvB1pqXLSH2v5-98" edge="1">
          <mxGeometry width="50" height="50" relative="1" as="geometry">
            <mxPoint x="440" y="610" as="sourcePoint"/>
            <mxPoint x="490" y="560" as="targetPoint"/>
          </mxGeometry>
        </mxCell>
        <mxCell id="35ZcNOYxvB1pqXLSH2v5-102" value="" style="endArrow=classic;html=1;entryX=0.5;entryY=0;entryDx=0;entryDy=0;exitX=0;exitY=0.5;exitDx=0;exitDy=0;" parent="1" source="35ZcNOYxvB1pqXLSH2v5-107" target="35ZcNOYxvB1pqXLSH2v5-96" edge="1">
          <mxGeometry width="50" height="50" relative="1" as="geometry">
            <mxPoint x="490" y="700" as="sourcePoint"/>
            <mxPoint x="540" y="650" as="targetPoint"/>
            <Array as="points">
              <mxPoint x="560" y="690"/>
              <mxPoint x="360" y="690"/>
            </Array>
          </mxGeometry>
        </mxCell>
        <mxCell id="35ZcNOYxvB1pqXLSH2v5-106" value="&lt;pre&gt;&lt;span&gt;toEventDetail&lt;/span&gt;&lt;/pre&gt;" style="rounded=0;whiteSpace=wrap;html=1;" parent="1" vertex="1">
          <mxGeometry x="650" y="559.9285714285714" width="120" height="60" as="geometry"/>
        </mxCell>
        <mxCell id="35ZcNOYxvB1pqXLSH2v5-107" value="EventDetail&lt;br&gt;object Made&lt;br&gt;" style="shape=parallelogram;perimeter=parallelogramPerimeter;whiteSpace=wrap;html=1;" parent="1" vertex="1">
          <mxGeometry x="650" y="660" width="120" height="60" as="geometry"/>
        </mxCell>
        <mxCell id="35ZcNOYxvB1pqXLSH2v5-108" value="" style="endArrow=classic;html=1;exitX=1;exitY=0.5;exitDx=0;exitDy=0;entryX=0;entryY=0.5;entryDx=0;entryDy=0;" parent="1" source="35ZcNOYxvB1pqXLSH2v5-98" target="35ZcNOYxvB1pqXLSH2v5-106" edge="1">
          <mxGeometry width="50" height="50" relative="1" as="geometry">
            <mxPoint x="600" y="620" as="sourcePoint"/>
            <mxPoint x="650" y="570" as="targetPoint"/>
          </mxGeometry>
        </mxCell>
        <mxCell id="35ZcNOYxvB1pqXLSH2v5-110" value="" style="endArrow=classic;html=1;entryX=0.5;entryY=0;entryDx=0;entryDy=0;exitX=0.5;exitY=1;exitDx=0;exitDy=0;" parent="1" source="35ZcNOYxvB1pqXLSH2v5-106" target="35ZcNOYxvB1pqXLSH2v5-107" edge="1">
          <mxGeometry width="50" height="50" relative="1" as="geometry">
            <mxPoint x="690" y="670" as="sourcePoint"/>
            <mxPoint x="740" y="620" as="targetPoint"/>
          </mxGeometry>
        </mxCell>
        <mxCell id="LNE5Gd2KFqZ17h5GxQ3j-16" style="edgeStyle=orthogonalEdgeStyle;rounded=0;orthogonalLoop=1;jettySize=auto;html=1;exitX=0.75;exitY=1;exitDx=0;exitDy=0;shape=link;fillColor=#f8cecc;strokeColor=#b85450;strokeWidth=4;" edge="1" parent="1" source="35ZcNOYxvB1pqXLSH2v5-113" target="LNE5Gd2KFqZ17h5GxQ3j-9">
          <mxGeometry relative="1" as="geometry"/>
        </mxCell>
        <mxCell id="35ZcNOYxvB1pqXLSH2v5-113" value="" style="rounded=0;whiteSpace=wrap;html=1;" parent="1" vertex="1">
          <mxGeometry x="533" y="785" width="227" height="115" as="geometry"/>
        </mxCell>
        <mxCell id="35ZcNOYxvB1pqXLSH2v5-114" value="&lt;h1&gt;&lt;pre&gt;&lt;span&gt;validatePostData&lt;/span&gt;&lt;/pre&gt;&lt;/h1&gt;&lt;p&gt;Validates all parameters individually making sure each fits its valid criteria. It the gives back a response&amp;nbsp;&lt;/p&gt;" style="text;html=1;strokeColor=none;fillColor=none;spacing=5;spacingTop=-20;whiteSpace=wrap;overflow=hidden;rounded=0;" parent="1" vertex="1">
          <mxGeometry x="533" y="780" width="227" height="115" as="geometry"/>
        </mxCell>
        <mxCell id="35ZcNOYxvB1pqXLSH2v5-116" value="" style="endArrow=classic;startArrow=classic;html=1;entryX=0;entryY=0.5;entryDx=0;entryDy=0;" parent="1" source="35ZcNOYxvB1pqXLSH2v5-97" target="35ZcNOYxvB1pqXLSH2v5-114" edge="1">
          <mxGeometry width="50" height="50" relative="1" as="geometry">
            <mxPoint x="450" y="870" as="sourcePoint"/>
            <mxPoint x="500" y="820" as="targetPoint"/>
          </mxGeometry>
        </mxCell>
        <mxCell id="35ZcNOYxvB1pqXLSH2v5-122" value="" style="endArrow=classic;html=1;entryX=0;entryY=0.5;entryDx=0;entryDy=0;fillColor=#f8cecc;strokeColor=#b85450;exitX=1;exitY=0.5;exitDx=0;exitDy=0;" parent="1" source="35ZcNOYxvB1pqXLSH2v5-168" target="35ZcNOYxvB1pqXLSH2v5-123" edge="1">
          <mxGeometry width="50" height="50" relative="1" as="geometry">
            <mxPoint x="420" y="920" as="sourcePoint"/>
            <mxPoint x="400" y="910" as="targetPoint"/>
            <Array as="points">
              <mxPoint x="570" y="950"/>
              <mxPoint x="570" y="1135"/>
            </Array>
          </mxGeometry>
        </mxCell>
        <mxCell id="35ZcNOYxvB1pqXLSH2v5-123" value="" style="ellipse;whiteSpace=wrap;html=1;" parent="1" vertex="1">
          <mxGeometry x="632.5" y="1095" width="200" height="80" as="geometry"/>
        </mxCell>
        <mxCell id="35ZcNOYxvB1pqXLSH2v5-120" value="&lt;b&gt;Error in validation of Data&lt;/b&gt;" style="text;html=1;strokeColor=none;fillColor=none;align=center;verticalAlign=middle;whiteSpace=wrap;rounded=0;" parent="1" vertex="1">
          <mxGeometry x="652.5" y="1116" width="160" height="24" as="geometry"/>
        </mxCell>
        <mxCell id="35ZcNOYxvB1pqXLSH2v5-128" value="(front end is sent a error code/message)" style="text;html=1;strokeColor=none;fillColor=none;align=center;verticalAlign=middle;whiteSpace=wrap;rounded=0;" parent="1" vertex="1">
          <mxGeometry x="672" y="1142.5" width="125" height="19" as="geometry"/>
        </mxCell>
        <mxCell id="35ZcNOYxvB1pqXLSH2v5-130" value="" style="rounded=1;whiteSpace=wrap;html=1;fillColor=#dae8fc;strokeColor=#6c8ebf;" parent="1" vertex="1">
          <mxGeometry x="180" y="1270" width="660" height="220" as="geometry"/>
        </mxCell>
        <mxCell id="35ZcNOYxvB1pqXLSH2v5-134" value="&lt;pre&gt;&lt;span&gt;toEventDoucument&lt;/span&gt;&lt;/pre&gt;" style="rounded=0;whiteSpace=wrap;html=1;" parent="1" vertex="1">
          <mxGeometry x="254.5" y="1030" width="120" height="63" as="geometry"/>
        </mxCell>
        <mxCell id="35ZcNOYxvB1pqXLSH2v5-135" value="EventDetail&lt;br&gt;object Made&lt;br&gt;" style="shape=parallelogram;perimeter=parallelogramPerimeter;whiteSpace=wrap;html=1;" parent="1" vertex="1">
          <mxGeometry x="436" y="1101.5" width="120" height="60" as="geometry"/>
        </mxCell>
        <mxCell id="35ZcNOYxvB1pqXLSH2v5-137" value="" style="endArrow=classic;html=1;entryX=0.5;entryY=0;entryDx=0;entryDy=0;exitX=1;exitY=0.5;exitDx=0;exitDy=0;" parent="1" source="35ZcNOYxvB1pqXLSH2v5-134" target="35ZcNOYxvB1pqXLSH2v5-135" edge="1">
          <mxGeometry width="50" height="50" relative="1" as="geometry">
            <mxPoint x="439" y="1077" as="sourcePoint"/>
            <mxPoint x="489" y="1027" as="targetPoint"/>
            <Array as="points">
              <mxPoint x="496" y="1062"/>
            </Array>
          </mxGeometry>
        </mxCell>
        <mxCell id="35ZcNOYxvB1pqXLSH2v5-139" value="" style="endArrow=classic;html=1;entryX=0.5;entryY=0;entryDx=0;entryDy=0;fillColor=#d5e8d4;strokeColor=#82b366;" parent="1" source="35ZcNOYxvB1pqXLSH2v5-171" edge="1" target="35ZcNOYxvB1pqXLSH2v5-134">
          <mxGeometry width="50" height="50" relative="1" as="geometry">
            <mxPoint x="314" y="900" as="sourcePoint"/>
            <mxPoint x="314" y="967" as="targetPoint"/>
          </mxGeometry>
        </mxCell>
        <mxCell id="35ZcNOYxvB1pqXLSH2v5-142" value="" style="endArrow=classic;html=1;exitX=0;exitY=0.25;exitDx=0;exitDy=0;entryX=0.5;entryY=0;entryDx=0;entryDy=0;" parent="1" source="35ZcNOYxvB1pqXLSH2v5-135" target="35ZcNOYxvB1pqXLSH2v5-143" edge="1">
          <mxGeometry width="50" height="50" relative="1" as="geometry">
            <mxPoint x="507" y="1090" as="sourcePoint"/>
            <mxPoint x="600" y="1150" as="targetPoint"/>
            <Array as="points">
              <mxPoint x="370" y="1121"/>
            </Array>
          </mxGeometry>
        </mxCell>
        <mxCell id="35ZcNOYxvB1pqXLSH2v5-143" value="" style="rounded=0;whiteSpace=wrap;html=1;" parent="1" vertex="1">
          <mxGeometry x="270" y="1340" width="200" height="110" as="geometry"/>
        </mxCell>
        <mxCell id="35ZcNOYxvB1pqXLSH2v5-145" value="&lt;h1&gt;&lt;pre&gt;&lt;span&gt;deletePost&lt;/span&gt;&lt;/pre&gt;&lt;/h1&gt;&lt;p&gt;Communicates the DB to delete the document that was modified, it will be passed to it.&lt;/p&gt;" style="text;html=1;strokeColor=none;fillColor=none;spacing=5;spacingTop=-20;whiteSpace=wrap;overflow=hidden;rounded=0;" parent="1" vertex="1">
          <mxGeometry x="270" y="1340" width="190" height="120" as="geometry"/>
        </mxCell>
        <mxCell id="35ZcNOYxvB1pqXLSH2v5-147" value="Repository Layer" style="text;html=1;strokeColor=none;fillColor=none;align=center;verticalAlign=middle;whiteSpace=wrap;rounded=0;" parent="1" vertex="1">
          <mxGeometry x="205" y="1290" width="120" height="20" as="geometry"/>
        </mxCell>
        <mxCell id="35ZcNOYxvB1pqXLSH2v5-148" value="" style="endArrow=classic;startArrow=classic;html=1;exitX=1;exitY=0.5;exitDx=0;exitDy=0;entryX=0;entryY=0.5;entryDx=0;entryDy=0;" parent="1" source="35ZcNOYxvB1pqXLSH2v5-143" target="35ZcNOYxvB1pqXLSH2v5-150" edge="1">
          <mxGeometry width="50" height="50" relative="1" as="geometry">
            <mxPoint x="500" y="1430" as="sourcePoint"/>
            <mxPoint x="550" y="1390" as="targetPoint"/>
            <Array as="points">
              <mxPoint x="530" y="1395"/>
              <mxPoint x="530" y="1385"/>
            </Array>
          </mxGeometry>
        </mxCell>
        <mxCell id="35ZcNOYxvB1pqXLSH2v5-149" value="" style="rounded=0;whiteSpace=wrap;html=1;" parent="1" vertex="1">
          <mxGeometry x="570" y="1340" width="160" height="110" as="geometry"/>
        </mxCell>
        <mxCell id="35ZcNOYxvB1pqXLSH2v5-150" value="&lt;h1&gt;addPost&lt;/h1&gt;&lt;p&gt;We will have the event to modify on wait while we delete the old one&lt;/p&gt;" style="text;html=1;strokeColor=none;fillColor=none;spacing=5;spacingTop=-20;whiteSpace=wrap;overflow=hidden;rounded=0;" parent="1" vertex="1">
          <mxGeometry x="570" y="1340" width="160" height="90" as="geometry"/>
        </mxCell>
        <mxCell id="35ZcNOYxvB1pqXLSH2v5-151" value="CouchBase DB (for Events)" style="aspect=fixed;perimeter=ellipsePerimeter;html=1;align=center;shadow=0;dashed=0;spacingTop=3;image;image=img/lib/active_directory/databases.svg;" parent="1" vertex="1">
          <mxGeometry x="265.5" y="1619.5" width="199" height="196" as="geometry"/>
        </mxCell>
        <mxCell id="35ZcNOYxvB1pqXLSH2v5-152" value="" style="endArrow=classic;html=1;entryX=0.5;entryY=0;entryDx=0;entryDy=0;" parent="1" target="35ZcNOYxvB1pqXLSH2v5-151" edge="1">
          <mxGeometry width="50" height="50" relative="1" as="geometry">
            <mxPoint x="365" y="1450" as="sourcePoint"/>
            <mxPoint x="390" y="1340" as="targetPoint"/>
          </mxGeometry>
        </mxCell>
        <mxCell id="35ZcNOYxvB1pqXLSH2v5-154" value="Model (DataBase)" style="text;html=1;strokeColor=none;fillColor=none;align=center;verticalAlign=middle;whiteSpace=wrap;rounded=0;" parent="1" vertex="1">
          <mxGeometry x="95" y="1625" width="120" height="20" as="geometry"/>
        </mxCell>
        <mxCell id="35ZcNOYxvB1pqXLSH2v5-155" value="" style="ellipse;whiteSpace=wrap;html=1;" parent="1" vertex="1">
          <mxGeometry x="625" y="1677.5" width="155" height="80" as="geometry"/>
        </mxCell>
        <mxCell id="35ZcNOYxvB1pqXLSH2v5-160" value="" style="endArrow=classic;html=1;exitX=1;exitY=0.5;exitDx=0;exitDy=0;entryX=0;entryY=0.5;entryDx=0;entryDy=0;" parent="1" source="35ZcNOYxvB1pqXLSH2v5-151" target="35ZcNOYxvB1pqXLSH2v5-155" edge="1">
          <mxGeometry width="50" height="50" relative="1" as="geometry">
            <mxPoint x="580" y="1754.5" as="sourcePoint"/>
            <mxPoint x="630" y="1704.5" as="targetPoint"/>
          </mxGeometry>
        </mxCell>
        <mxCell id="35ZcNOYxvB1pqXLSH2v5-161" value="Data Successfully modified" style="text;html=1;strokeColor=none;fillColor=none;align=center;verticalAlign=middle;whiteSpace=wrap;rounded=0;" parent="1" vertex="1">
          <mxGeometry x="646.5" y="1696" width="120" height="43" as="geometry"/>
        </mxCell>
        <mxCell id="35ZcNOYxvB1pqXLSH2v5-162" value="" style="endArrow=classic;html=1;exitX=0.533;exitY=0.998;exitDx=0;exitDy=0;exitPerimeter=0;" parent="1" source="35ZcNOYxvB1pqXLSH2v5-67" edge="1">
          <mxGeometry width="50" height="50" relative="1" as="geometry">
            <mxPoint x="330" y="378" as="sourcePoint"/>
            <mxPoint x="330" y="511" as="targetPoint"/>
          </mxGeometry>
        </mxCell>
        <mxCell id="35ZcNOYxvB1pqXLSH2v5-164" value="1." style="text;html=1;strokeColor=none;fillColor=none;align=center;verticalAlign=middle;whiteSpace=wrap;rounded=0;" parent="1" vertex="1">
          <mxGeometry x="225" y="785" width="40" height="20" as="geometry"/>
        </mxCell>
        <mxCell id="35ZcNOYxvB1pqXLSH2v5-165" value="2A." style="text;html=1;strokeColor=none;fillColor=none;align=center;verticalAlign=middle;whiteSpace=wrap;rounded=0;" parent="1" vertex="1">
          <mxGeometry x="485" y="784" width="40" height="20" as="geometry"/>
        </mxCell>
        <mxCell id="35ZcNOYxvB1pqXLSH2v5-166" value="3." style="text;html=1;strokeColor=none;fillColor=none;align=center;verticalAlign=middle;whiteSpace=wrap;rounded=0;" parent="1" vertex="1">
          <mxGeometry x="320" y="900" width="40" height="20" as="geometry"/>
        </mxCell>
        <mxCell id="35ZcNOYxvB1pqXLSH2v5-168" value="Data Is Invalid" style="text;html=1;strokeColor=none;fillColor=none;align=center;verticalAlign=middle;whiteSpace=wrap;rounded=0;" parent="1" vertex="1">
          <mxGeometry x="390" y="945" width="90" height="10" as="geometry"/>
        </mxCell>
        <mxCell id="35ZcNOYxvB1pqXLSH2v5-170" value="" style="endArrow=classic;html=1;exitX=0.5;exitY=1;exitDx=0;exitDy=0;entryX=0;entryY=0.5;entryDx=0;entryDy=0;fillColor=#f8cecc;strokeColor=#b85450;" parent="1" source="35ZcNOYxvB1pqXLSH2v5-97" target="35ZcNOYxvB1pqXLSH2v5-168" edge="1">
          <mxGeometry width="50" height="50" relative="1" as="geometry">
            <mxPoint x="360.33333333333337" y="899.6666666666667" as="sourcePoint"/>
            <mxPoint x="570.3333333333335" y="949.6666666666667" as="targetPoint"/>
            <Array as="points">
              <mxPoint x="360" y="950"/>
            </Array>
          </mxGeometry>
        </mxCell>
        <mxCell id="35ZcNOYxvB1pqXLSH2v5-171" value="Data Is valid" style="text;html=1;strokeColor=none;fillColor=none;align=center;verticalAlign=middle;whiteSpace=wrap;rounded=0;" parent="1" vertex="1">
          <mxGeometry x="281" y="920" width="65" height="30" as="geometry"/>
        </mxCell>
        <mxCell id="35ZcNOYxvB1pqXLSH2v5-172" value="" style="endArrow=classic;html=1;entryX=0.5;entryY=0;entryDx=0;entryDy=0;fillColor=#d5e8d4;strokeColor=#82b366;exitX=0.242;exitY=1;exitDx=0;exitDy=0;exitPerimeter=0;" parent="1" source="35ZcNOYxvB1pqXLSH2v5-97" target="35ZcNOYxvB1pqXLSH2v5-171" edge="1">
          <mxGeometry width="50" height="50" relative="1" as="geometry">
            <mxPoint x="314" y="900" as="sourcePoint"/>
            <mxPoint x="314" y="967" as="targetPoint"/>
          </mxGeometry>
        </mxCell>
        <mxCell id="LNE5Gd2KFqZ17h5GxQ3j-10" value="" style="rounded=0;whiteSpace=wrap;html=1;" vertex="1" parent="1">
          <mxGeometry x="582.5" y="941.5" width="250" height="120" as="geometry"/>
        </mxCell>
        <mxCell id="LNE5Gd2KFqZ17h5GxQ3j-9" value="&lt;h1&gt;&lt;pre&gt;additionalVerf&lt;/pre&gt;&lt;/h1&gt;&lt;p&gt;Validates if the even exists. If said event exists does that event belong to the said modifier (user)&lt;/p&gt;" style="text;html=1;strokeColor=none;fillColor=none;spacing=5;spacingTop=-20;whiteSpace=wrap;overflow=hidden;rounded=0;" vertex="1" parent="1">
          <mxGeometry x="605.5" y="941.5" width="227" height="115" as="geometry"/>
        </mxCell>
        <mxCell id="LNE5Gd2KFqZ17h5GxQ3j-15" value="2B." style="text;html=1;strokeColor=none;fillColor=none;align=center;verticalAlign=middle;whiteSpace=wrap;rounded=0;" vertex="1" parent="1">
          <mxGeometry x="585" y="915" width="40" height="20" as="geometry"/>
        </mxCell>
        <mxCell id="LNE5Gd2KFqZ17h5GxQ3j-18" style="edgeStyle=orthogonalEdgeStyle;rounded=0;orthogonalLoop=1;jettySize=auto;html=1;exitX=0.5;exitY=1;exitDx=0;exitDy=0;entryX=0.75;entryY=0;entryDx=0;entryDy=0;strokeWidth=1;" edge="1" parent="1" source="35ZcNOYxvB1pqXLSH2v5-149" target="35ZcNOYxvB1pqXLSH2v5-151">
          <mxGeometry relative="1" as="geometry"/>
        </mxCell>
      </root>
    </mxGraphModel>
  </diagram>
</mxfile>
